<svg width="50" height="34" viewBox="0 0 50 34" fill="none" xmlns="http://www.w3.org/2000/svg">
<path d="M23.392 31.216C22.784 31.216 22.48 30.722 22.48 29.734C22.48 27.8847 23.4933 24.832 25.52 20.576C25.2667 14.5213 24.0633 9.92333 21.91 6.782C20.1113 4.17267 17.9833 2.868 15.526 2.868C13.8793 2.868 12.4607 3.438 11.27 4.578C10.0793 5.718 9.484 7.09867 9.484 8.72C9.484 9.50533 9.636 10.3033 9.94 11.114C11.004 13.6727 12.524 15.5093 14.5 16.624C14.652 16.7 14.69 16.814 14.614 16.966C14.4873 17.0927 14.3733 17.118 14.272 17.042C11.6627 15.6233 9.83867 13.6473 8.8 11.114C8.54667 10.4553 8.35667 9.822 8.23 9.214C8.10333 8.58067 8.04 7.96 8.04 7.352C8.04 5.224 8.762 3.476 10.206 2.108C11.574 0.765331 13.3093 0.0939977 15.412 0.0939977C18.908 0.0939977 21.7327 1.918 23.886 5.566C25.786 8.78333 26.888 12.7733 27.192 17.536C28.2307 15.8133 29.2947 14.2173 30.384 12.748C31.4987 11.2533 32.664 9.88533 33.88 8.644C36.7173 5.73067 39.5293 3.818 42.316 2.906C42.5187 2.83 42.7467 2.76667 43 2.716C43.2787 2.66533 43.5827 2.61467 43.912 2.564C43.8613 2.51333 44.254 2.45 45.09 2.374C45.2167 2.34866 45.3433 2.336 45.47 2.336C45.622 2.336 45.7487 2.336 45.85 2.336C48.054 2.336 49.156 3.172 49.156 4.844C49.156 5.452 48.966 6.022 48.586 6.554C48.1553 7.13667 47.6107 7.428 46.952 7.428C46.3947 7.428 45.964 7.25067 45.66 6.896C45.3307 6.56666 45.166 6.174 45.166 5.718C45.166 4.502 45.7613 3.894 46.952 3.894C47.5347 3.894 47.9527 4.122 48.206 4.578C48.1047 3.86867 47.484 3.45067 46.344 3.324C44.748 3.172 43.038 4.578 41.214 7.542C39.6433 10.126 38.2627 13.3687 37.072 17.27C35.932 21.0193 35.362 24.1227 35.362 26.58C35.362 28.708 35.8433 29.772 36.806 29.772C37.49 29.772 38.326 29.1387 39.314 27.872C40.2767 26.656 41.4167 24.68 42.734 21.944C42.8353 21.6907 42.962 21.5387 43.114 21.488H43.152C43.2533 21.488 43.304 21.5767 43.304 21.754C43.304 21.9567 43.2533 22.1593 43.152 22.362C41.7587 25.1993 40.8973 26.8587 40.568 27.34C39.3013 29.3413 38.0473 30.418 36.806 30.57C36.73 30.57 36.654 30.57 36.578 30.57C36.502 30.5953 36.426 30.608 36.35 30.608C35.438 30.608 34.5893 30.2787 33.804 29.62C32.6893 28.632 32.132 27.1247 32.132 25.098C32.132 22.6913 32.9553 19.6893 34.602 16.092C35.9447 13.2293 37.5407 10.4933 39.39 7.884C40.9353 5.70533 42.4553 4.13467 43.95 3.172C41.1633 3.95733 38.136 6.022 34.868 9.366C32.1067 12.2033 29.5607 15.5473 27.23 19.398C27.2807 24.5913 26.3433 28.3913 24.418 30.798C24.19 31.0767 23.848 31.216 23.392 31.216ZM3.974 33.61C2.91 33.61 2.08667 33.306 1.504 32.698C0.997333 32.1913 0.744 31.5453 0.744 30.76C0.744 30.0507 0.972 29.43 1.428 28.898C1.85867 28.3913 2.42867 28.138 3.138 28.138C3.61933 28.138 4.03733 28.3153 4.392 28.67C4.67067 28.974 4.81 29.354 4.81 29.81C4.81 30.418 4.582 30.912 4.126 31.292C3.72067 31.672 3.26467 31.862 2.758 31.862C2.15 31.862 1.68133 31.6213 1.352 31.14C1.40267 31.5453 1.63067 31.8873 2.036 32.166C2.46667 32.4447 2.948 32.584 3.48 32.584C3.73333 32.584 3.98667 32.546 4.24 32.47C6.95067 31.71 9.80067 29.1133 12.79 24.68C14.2847 22.4507 15.678 19.968 16.97 17.232C18.2873 14.4707 19.4907 11.456 20.58 8.188C20.732 7.732 20.8713 7.504 20.998 7.504C21.1247 7.504 21.2007 7.59267 21.226 7.77C21.2513 7.94733 21.2513 8.112 21.226 8.264C20.4913 11.1013 19.7693 13.6093 19.06 15.788C18.376 17.9413 17.7047 19.7653 17.046 21.26C13.9807 28.176 10.282 32.204 5.95 33.344C5.266 33.5213 4.60733 33.61 3.974 33.61Z" fill="white"/>
</svg>
