<svg width="37" height="14" viewBox="0 0 37 14" fill="none" xmlns="http://www.w3.org/2000/svg">
<path d="M9.26 12.48C9.02 12.48 8.9 12.285 8.9 11.895C8.9 11.165 9.3 9.96 10.1 8.28C10 5.89 9.525 4.075 8.675 2.835C7.965 1.805 7.125 1.29 6.155 1.29C5.505 1.29 4.945 1.515 4.475 1.965C4.005 2.415 3.77 2.96 3.77 3.6C3.77 3.91 3.83 4.225 3.95 4.545C4.37 5.555 4.97 6.28 5.75 6.72C5.81 6.75 5.825 6.795 5.795 6.855C5.745 6.905 5.7 6.915 5.66 6.885C4.63 6.325 3.91 5.545 3.5 4.545C3.4 4.285 3.325 4.035 3.275 3.795C3.225 3.545 3.2 3.3 3.2 3.06C3.2 2.22 3.485 1.53 4.055 0.99C4.595 0.459999 5.28 0.194999 6.11 0.194999C7.49 0.194999 8.605 0.914999 9.455 2.355C10.205 3.625 10.64 5.2 10.76 7.08C11.17 6.4 11.59 5.77 12.02 5.19C12.46 4.6 12.92 4.06 13.4 3.57C14.52 2.42 15.63 1.665 16.73 1.305C16.81 1.275 16.9 1.25 17 1.23C17.11 1.21 17.23 1.19 17.36 1.17C17.34 1.15 17.495 1.125 17.825 1.095C17.875 1.085 17.925 1.08 17.975 1.08C18.035 1.08 18.085 1.08 18.125 1.08C18.995 1.08 19.43 1.41 19.43 2.07C19.43 2.31 19.355 2.535 19.205 2.745C19.035 2.975 18.82 3.09 18.56 3.09C18.34 3.09 18.17 3.02 18.05 2.88C17.92 2.75 17.855 2.595 17.855 2.415C17.855 1.935 18.09 1.695 18.56 1.695C18.79 1.695 18.955 1.785 19.055 1.965C19.015 1.685 18.77 1.52 18.32 1.47C17.69 1.41 17.015 1.965 16.295 3.135C15.675 4.155 15.13 5.435 14.66 6.975C14.21 8.455 13.985 9.68 13.985 10.65C13.985 11.49 14.175 11.91 14.555 11.91C14.825 11.91 15.155 11.66 15.545 11.16C15.925 10.68 16.375 9.9 16.895 8.82C16.935 8.72 16.985 8.66 17.045 8.64H17.06C17.1 8.64 17.12 8.675 17.12 8.745C17.12 8.825 17.1 8.905 17.06 8.985C16.51 10.105 16.17 10.76 16.04 10.95C15.54 11.74 15.045 12.165 14.555 12.225C14.525 12.225 14.495 12.225 14.465 12.225C14.435 12.235 14.405 12.24 14.375 12.24C14.015 12.24 13.68 12.11 13.37 11.85C12.93 11.46 12.71 10.865 12.71 10.065C12.71 9.115 13.035 7.93 13.685 6.51C14.215 5.38 14.845 4.3 15.575 3.27C16.185 2.41 16.785 1.79 17.375 1.41C16.275 1.72 15.08 2.535 13.79 3.855C12.7 4.975 11.695 6.295 10.775 7.815C10.795 9.865 10.425 11.365 9.665 12.315C9.575 12.425 9.44 12.48 9.26 12.48ZM1.595 13.425C1.175 13.425 0.85 13.305 0.62 13.065C0.42 12.865 0.32 12.61 0.32 12.3C0.32 12.02 0.41 11.775 0.59 11.565C0.76 11.365 0.985 11.265 1.265 11.265C1.455 11.265 1.62 11.335 1.76 11.475C1.87 11.595 1.925 11.745 1.925 11.925C1.925 12.165 1.835 12.36 1.655 12.51C1.495 12.66 1.315 12.735 1.115 12.735C0.875 12.735 0.69 12.64 0.56 12.45C0.58 12.61 0.67 12.745 0.83 12.855C1 12.965 1.19 13.02 1.4 13.02C1.5 13.02 1.6 13.005 1.7 12.975C2.77 12.675 3.895 11.65 5.075 9.9C5.665 9.02 6.215 8.04 6.725 6.96C7.245 5.87 7.72 4.68 8.15 3.39C8.21 3.21 8.265 3.12 8.315 3.12C8.365 3.12 8.395 3.155 8.405 3.225C8.415 3.295 8.415 3.36 8.405 3.42C8.115 4.54 7.83 5.53 7.55 6.39C7.28 7.24 7.015 7.96 6.755 8.55C5.545 11.28 4.085 12.87 2.375 13.32C2.105 13.39 1.845 13.425 1.595 13.425Z" fill="#9A8C98"/>
<path d="M17.2155 12V3.36H24.4155C24.6795 3.36 24.9195 3.424 25.1355 3.552C25.3595 3.68 25.5355 3.856 25.6635 4.08C25.7915 4.296 25.8555 4.536 25.8555 4.8V10.56C25.8555 10.824 25.7915 11.068 25.6635 11.292C25.5355 11.508 25.3595 11.68 25.1355 11.808C24.9195 11.936 24.6795 12 24.4155 12H17.2155ZM18.6555 11.028H24.4155C24.5435 11.028 24.6515 10.984 24.7395 10.896C24.8355 10.8 24.8835 10.688 24.8835 10.56V4.8C24.8835 4.672 24.8355 4.564 24.7395 4.476C24.6515 4.38 24.5435 4.332 24.4155 4.332H18.6555C18.5275 4.332 18.4155 4.38 18.3195 4.476C18.2315 4.564 18.1875 4.672 18.1875 4.8V10.56C18.1875 10.688 18.2315 10.8 18.3195 10.896C18.4155 10.984 18.5275 11.028 18.6555 11.028ZM27.2113 12V3.36H28.1833V7.188H35.0833V3.36H36.0673V12H35.0833V8.172H28.1833V12H27.2113Z" fill="#F2E9E4"/>
</svg>
