<svg width="22" height="15" viewBox="0 0 22 15" fill="none" xmlns="http://www.w3.org/2000/svg">
<path d="M0.38 14.266C0.886667 13.0247 1.52 11.492 2.28 9.668C3.04 7.844 3.96467 5.74133 5.054 3.36C5.282 2.85333 5.49733 2.43533 5.7 2.106C5.90267 1.77667 6.09267 1.52333 6.27 1.346C6.62467 0.991333 7.08067 0.814 7.638 0.814C7.68867 0.814 7.77733 0.814 7.904 0.814C8.03067 0.814 8.208 0.839333 8.436 0.889999C8.79067 0.915333 9.05667 0.915333 9.234 0.889999C8.29667 1.44733 6.89067 3.90467 5.016 8.262C5.29467 7.90733 5.64933 7.464 6.08 6.932C6.51067 6.37467 7.068 5.76667 7.752 5.108C8.46133 4.424 9.044 3.892 9.5 3.512C9.956 3.132 10.2727 2.87867 10.45 2.752C11.5647 1.916 12.388 1.498 12.92 1.498C13.6547 1.498 14.022 1.85267 14.022 2.562C14.022 2.79 13.9713 3.00533 13.87 3.208C13.566 3.79067 13.1733 4.52533 12.692 5.412C12.236 6.29867 11.704 7.33733 11.096 8.528C12.312 7.008 13.3633 5.85533 14.25 5.07C14.706 4.66467 15.2127 4.272 15.77 3.892C16.3527 3.512 16.9733 3.132 17.632 2.752C19.076 1.916 20.1653 1.498 20.9 1.498C21.0773 1.498 21.204 1.51067 21.28 1.536C20.8747 2.24533 20.4947 2.92933 20.14 3.588C19.8107 4.24667 19.494 4.86733 19.19 5.45C18.4807 6.84333 17.9233 8.034 17.518 9.022C17.1127 10.01 16.8467 10.7827 16.72 11.34C16.6947 11.5173 16.6693 11.682 16.644 11.834C16.644 11.986 16.644 12.1253 16.644 12.252C16.644 12.9107 16.8847 13.24 17.366 13.24C18.1513 13.24 19.0887 12.442 20.178 10.846L20.71 11.226C19.418 13.1767 18.126 14.152 16.834 14.152C15.238 14.152 14.44 13.3287 14.44 11.682C14.44 10.314 15.2507 8.32533 16.872 5.716C17.1253 5.31067 17.252 4.96867 17.252 4.69C17.252 4.386 17.1253 4.234 16.872 4.234C16.5933 4.234 16.226 4.386 15.77 4.69C15.314 4.96867 14.7947 5.374 14.212 5.906C13.7307 6.362 13.224 6.90667 12.692 7.54C12.1853 8.17333 11.6407 8.89533 11.058 9.706C9.79133 11.5553 9.044 12.9867 8.816 14C8.38533 14 8.056 13.7973 7.828 13.392C7.65067 13.0373 7.562 12.6827 7.562 12.328C7.562 11.8213 7.73933 11.15 8.094 10.314C8.44867 9.478 8.94267 8.46467 9.576 7.274C10.3107 5.95667 10.678 5.00667 10.678 4.424C10.678 4.17067 10.5767 4.044 10.374 4.044C9.96867 4.044 9.06933 4.67733 7.676 5.944C7.32133 6.27333 6.94133 6.69133 6.536 7.198C6.156 7.67933 5.75067 8.24933 5.32 8.908C4.332 10.3773 3.572 11.8467 3.04 13.316C2.888 13.696 2.49533 13.924 1.862 14C1.05133 14.076 0.557333 14.1647 0.38 14.266Z" fill="white"/>
</svg>
